<?xml version="1.0" encoding="UTF-8" standalone="no"?>
<!-- Generator: Adobe Illustrator 18.0.0, SVG Export Plug-In . SVG Version: 6.00 Build 0)  -->

<svg
   xmlns:dc="http://purl.org/dc/elements/1.1/"
   xmlns:cc="http://creativecommons.org/ns#"
   xmlns:rdf="http://www.w3.org/1999/02/22-rdf-syntax-ns#"
   xmlns:svg="http://www.w3.org/2000/svg"
   xmlns="http://www.w3.org/2000/svg"
   xmlns:sodipodi="http://sodipodi.sourceforge.net/DTD/sodipodi-0.dtd"
   xmlns:inkscape="http://www.inkscape.org/namespaces/inkscape"
   version="1.1"
   id="_x31_"
   x="0px"
   y="0px"
   viewBox="0 0 307.82565 300.91568"
   xml:space="preserve"
   sodipodi:docname="f_f_business_35_svg_f_business_35_0bg.svg"
   inkscape:version="0.92.4 (unknown)"
   width="307.82565"
   height="300.91568"><metadata
   id="metadata47"><rdf:RDF><cc:Work
       rdf:about=""><dc:format>image/svg+xml</dc:format><dc:type
         rdf:resource="http://purl.org/dc/dcmitype/StillImage" /><dc:title></dc:title></cc:Work></rdf:RDF></metadata><defs
   id="defs45">
	
	
	

		
		
		
		
		
		
		
		
		
		
		
		
		
		
		
		
	</defs><sodipodi:namedview
   pagecolor="#ffffff"
   bordercolor="#666666"
   borderopacity="1"
   objecttolerance="10"
   gridtolerance="10"
   guidetolerance="10"
   inkscape:pageopacity="0"
   inkscape:pageshadow="2"
   inkscape:window-width="1855"
   inkscape:window-height="1176"
   id="namedview43"
   showgrid="false"
   inkscape:zoom="0.921875"
   inkscape:cx="94.401592"
   inkscape:cy="342.73607"
   inkscape:window-x="65"
   inkscape:window-y="24"
   inkscape:window-maximized="1"
   inkscape:current-layer="_x31_"
   fit-margin-top="0"
   fit-margin-left="0"
   fit-margin-right="0"
   fit-margin-bottom="0" />
<path
   style="fill:#000000;stroke:#000000;stroke-width:6.66666651;stroke-miterlimit:4;stroke-dasharray:none"
   d="M 304.49233,40.762333 V 282.06833 c 0,8.55 -6.963,15.514 -15.462,15.514 H 18.796333 c -0.614,0 -1.229,-0.051 -1.843,-0.154 -7.0139997,-0.819 -12.6469997,-6.4 -13.4659997,-13.466 -0.102,-0.614 -0.154,-1.28 -0.154,-1.894 V 18.797333 c 0,-8.499 6.9629997,-15.4629997 15.4619997,-15.4629997 h 28.928 V 71.635333 c 0,0.512 0.051,1.076 0.051,1.587 0,0 0.051,0.051 0.051,0.103 0.871,7.116 6.861,12.595 14.183,12.595 H 245.81633 c 7.373,0 13.465,-5.631 14.233,-12.8 0,-0.051 0,-0.051 0,-0.051 0.051,-0.512 0.051,-0.973 0.051,-1.434 V 3.3343333 h 7.014 z"
   id="path6"
   inkscape:connector-curvature="0" /><path
   style="fill:#ffffff;stroke:#000000;stroke-width:6.66666651;stroke-miterlimit:4;stroke-dasharray:none"
   d="M 261.38233,3.3343333 V 71.635333 c 0,7.476 -5.786,13.619 -13.21,14.234 -0.512,0.051 -0.973,0.051 -1.485,0.051 H 61.036333 c -4.966,0 -9.318,-2.509 -11.93,-6.298 -0.819,-1.126 -1.433,-2.406 -1.843,-3.738 -0.461,-1.331 -0.666,-2.765 -0.666,-4.25 V 3.3333333 H 261.38233 Z"
   id="path8"
   inkscape:connector-curvature="0" /><path
   style="opacity:0.1;fill:#feffff;stroke-width:6.66666651;stroke-miterlimit:4;stroke-dasharray:none"
   d="m 261.13433,67.636333 v 3.989 c 0,7.9 -6.474,14.282 -14.425,14.282 H 61.059333 c -7.978,0 -14.425,-6.383 -14.425,-14.282 v -3.989 c 0,7.9 6.447,14.282 14.425,14.282 H 246.70933 c 7.951,0 14.425,-6.383 14.425,-14.282 z"
   id="path10"
   inkscape:connector-curvature="0" /><path
   style="fill:#cccccc;stroke:#000000;stroke-width:6.66666651;stroke-miterlimit:4;stroke-dasharray:none"
   d="M 251.29533,3.3343333 V 71.635333 c 0,4.045 -1.689,7.68 -4.403,10.291 -2.56,2.509 -6.042,3.994 -9.882,3.994 h -100.608 c -3.84,0 -7.322,-1.485 -9.882,-3.994 -2.713,-2.611 -4.403,-6.246 -4.403,-10.291 V 3.3343333 Z"
   id="path12"
   inkscape:connector-curvature="0" /><path
   style="fill:#ffffff;stroke:#000000;stroke-width:6.66666651;stroke-miterlimit:4;stroke-dasharray:none"
   d="m 259.00533,120.52333 v 177.034 H 46.621333 v -177.034 c 0,-4.979 4.073,-9.054 9.054,-9.054 H 249.95233 c 4.98,0 9.053,4.075 9.053,9.054 z"
   id="path14"
   inkscape:connector-curvature="0" /><rect
   x="71.165329"
   y="148.54433"
   style="fill:#000000;stroke-width:6.66666651;stroke-miterlimit:4;stroke-dasharray:none"
   width="81.648003"
   height="12.581"
   id="rect16" /><rect
   x="71.165329"
   y="183.80934"
   style="fill:#000000;stroke-width:6.66666651;stroke-miterlimit:4;stroke-dasharray:none"
   width="162.853"
   height="12.581"
   id="rect18" /><rect
   x="71.165329"
   y="219.07433"
   style="fill:#000000;stroke-width:6.66666651;stroke-miterlimit:4;stroke-dasharray:none"
   width="162.853"
   height="12.581"
   id="rect20" /><rect
   x="71.165329"
   y="254.33934"
   style="fill:#000000;stroke-width:6.66666651;stroke-miterlimit:4;stroke-dasharray:none"
   width="162.853"
   height="12.581"
   id="rect22" /><path
   style="fill:#000000;stroke:none;stroke-width:6.66666651;stroke-miterlimit:4;stroke-dasharray:none"
   d="m 215.53733,11.561333 h -12.272 v 60.618 h 12.272 c 5.224,0 9.459,-4.235 9.459,-9.459 v -41.699 c 0,-5.226 -4.235,-9.46 -9.459,-9.46 z"
   id="path36"
   inkscape:connector-curvature="0" />
</svg>