<?xml version="1.0" encoding="UTF-8" standalone="no"?>
<svg
   xmlns:dc="http://purl.org/dc/elements/1.1/"
   xmlns:cc="http://creativecommons.org/ns#"
   xmlns:rdf="http://www.w3.org/1999/02/22-rdf-syntax-ns#"
   xmlns:svg="http://www.w3.org/2000/svg"
   xmlns="http://www.w3.org/2000/svg"
   xmlns:sodipodi="http://sodipodi.sourceforge.net/DTD/sodipodi-0.dtd"
   xmlns:inkscape="http://www.inkscape.org/namespaces/inkscape"
   height="512pt"
   viewBox="0 -15 512 512"
   width="512pt"
   version="1.1"
   id="svg118"
   sodipodi:docname="graph.svg"
   inkscape:version="0.92.4 (unknown)">
  <metadata
     id="metadata124">
    <rdf:RDF>
      <cc:Work
         rdf:about="">
        <dc:format>image/svg+xml</dc:format>
        <dc:type
           rdf:resource="http://purl.org/dc/dcmitype/StillImage" />
        <dc:title />
      </cc:Work>
    </rdf:RDF>
  </metadata>
  <defs
     id="defs122" />
  <sodipodi:namedview
     pagecolor="#ffffff"
     bordercolor="#666666"
     borderopacity="1"
     objecttolerance="10"
     gridtolerance="10"
     guidetolerance="10"
     inkscape:pageopacity="0"
     inkscape:pageshadow="2"
     inkscape:window-width="1855"
     inkscape:window-height="1176"
     id="namedview120"
     showgrid="false"
     inkscape:zoom="0.9777961"
     inkscape:cx="187.9518"
     inkscape:cy="230.7249"
     inkscape:window-x="65"
     inkscape:window-y="24"
     inkscape:window-maximized="1"
     inkscape:current-layer="svg118" />
  <path
     d="m477 0h-442c-19.300781 0-35 15.699219-35 35v340c0 19.300781 15.699219 35 35 35h134.128906l-20.101562 51.550781c-1.800782 4.613281-1.207032 9.820313 1.589844 13.914063 2.792968 4.089844 7.429687 6.535156 12.382812 6.535156h186c4.957031 0 9.589844-2.445312 12.386719-6.535156 2.792969-4.09375 3.390625-9.300782 1.589843-13.914063l-20.105468-51.550781h134.128906c19.300781 0 35-15.699219 35-35v-340c0-19.300781-15.699219-35-35-35zm-447 35c0-2.757812 2.242188-5 5-5h442c2.757812 0 5 2.242188 5 5v285h-452zm297.050781 417h-142.101562l16.378906-42h109.339844zm154.949219-77c0 2.757812-2.242188 5-5 5h-442c-2.757812 0-5-2.242188-5-5v-25h452zm0 0"
     id="path114"
     style="stroke:none;stroke-opacity:1;fill:#7fc242;fill-opacity:1" />
  <path
     d="m367 160h-16.1875c-3.753906-23.5625-16.203125-44.261719-33.941406-58.699219l8.121094-14.0625c4.140624-7.175781 1.683593-16.347656-5.492188-20.492187-7.175781-4.144532-16.347656-1.683594-20.488281 5.492187l-8.097657 14.023438c-10.539062-4.039063-21.972656-6.261719-33.914062-6.261719s-23.375 2.222656-33.910156 6.261719l-8.097656-14.023438c-4.144532-7.175781-13.316407-9.632812-20.492188-5.492187-7.171875 4.144531-9.632812 13.316406-5.488281 20.492187l8.117187 14.0625c-17.738281 14.4375-30.1875 35.136719-33.9375 58.699219h-16.191406c-8.285156 0-15 6.714844-15 15s6.714844 15 15 15h16.1875c3.753906 23.5625 16.203125 44.261719 33.941406 58.699219l-8.121094 14.0625c-4.140624 7.175781-1.683593 16.347656 5.492188 20.492187 2.359375 1.363282 4.941406 2.011719 7.484375 2.011719 5.183594 0 10.226563-2.691406 13.003906-7.503906l8.097657-14.023438c10.539062 4.039063 21.972656 6.261719 33.914062 6.261719s23.375-2.222656 33.910156-6.261719l8.097656 14.023438c2.777344 4.8125 7.820313 7.503906 13.003907 7.503906 2.546875 0 5.125-.648437 7.488281-2.011719 7.171875-4.144531 9.632812-13.316406 5.488281-20.492187l-8.117187-14.0625c17.738281-14.4375 30.1875-35.136719 33.9375-58.699219h16.191406c8.285156 0 15-6.714844 15-15s-6.714844-15-15-15zm-110 80c-35.839844 0-65-29.160156-65-65s29.160156-65 65-65 65 29.160156 65 65-29.160156 65-65 65zm0 0"
     id="path116"
     style="fill:#7fc242;fill-opacity:1" />
</svg>
