<?xml version="1.0" encoding="UTF-8" standalone="no"?>
<svg
   xmlns:dc="http://purl.org/dc/elements/1.1/"
   xmlns:cc="http://creativecommons.org/ns#"
   xmlns:rdf="http://www.w3.org/1999/02/22-rdf-syntax-ns#"
   xmlns:svg="http://www.w3.org/2000/svg"
   xmlns="http://www.w3.org/2000/svg"
   xmlns:sodipodi="http://sodipodi.sourceforge.net/DTD/sodipodi-0.dtd"
   xmlns:inkscape="http://www.inkscape.org/namespaces/inkscape"
   height="512pt"
   viewBox="0 0 512 512"
   width="512pt"
   version="1.1"
   id="svg96"
   sodipodi:docname="layer.svg"
   inkscape:version="0.92.4 (unknown)">
  <metadata
     id="metadata102">
    <rdf:RDF>
      <cc:Work
         rdf:about="">
        <dc:format>image/svg+xml</dc:format>
        <dc:type
           rdf:resource="http://purl.org/dc/dcmitype/StillImage" />
      </cc:Work>
    </rdf:RDF>
  </metadata>
  <defs
     id="defs100" />
  <sodipodi:namedview
     pagecolor="#ffffff"
     bordercolor="#666666"
     borderopacity="1"
     objecttolerance="10"
     gridtolerance="10"
     guidetolerance="10"
     inkscape:pageopacity="0"
     inkscape:pageshadow="2"
     inkscape:window-width="1855"
     inkscape:window-height="1176"
     id="namedview98"
     showgrid="false"
     inkscape:zoom="0.34570313"
     inkscape:cx="-279.14124"
     inkscape:cy="341.33333"
     inkscape:window-x="65"
     inkscape:window-y="24"
     inkscape:window-maximized="1"
     inkscape:current-layer="svg96" />
  <path
     d="m512 255.96875c0-5.691406-3.21875-10.890625-8.3125-13.429688l-99.242188-49.414062 99.242188-49.414062c5.09375-2.535157 8.3125-7.738282 8.3125-13.429688s-3.21875-10.890625-8.3125-13.425781l-223.171875-111.125c-15.351563-7.640625-33.679687-7.640625-49.03125 0l-223.171875 111.125c-5.09375 2.535156-8.3125 7.738281-8.3125 13.429687 0 5.6875 3.21875 10.890625 8.3125 13.425782l99.242188 49.414062-99.242188 49.414062c-5.09375 2.539063-8.3125 7.738282-8.3125 13.429688 0 5.6875 3.21875 10.890625 8.3125 13.425781l99.242188 49.414063-99.242188 49.414062c-5.09375 2.539063-8.3125 7.738282-8.3125 13.429688s3.21875 10.890625 8.3125 13.429687l223.171875 111.121094c7.675781 3.820313 16.09375 5.730469 24.515625 5.730469s16.839844-1.910156 24.515625-5.730469l223.171875-111.121094c5.09375-2.539062 8.3125-7.738281 8.3125-13.429687s-3.21875-10.890625-8.3125-13.429688l-99.242188-49.414062 99.242188-49.414063c5.09375-2.535156 8.3125-7.734375 8.3125-13.425781zm-267.144531-223.382812c6.980469-3.472657 15.3125-3.472657 22.289062 0l196.203125 97.695312-99.234375 49.410156c-.003906.003906-.003906.003906-.007812.003906l-96.960938 48.28125c-.4375.214844-.878906.421876-1.324219.609376-3.125 1.332031-6.472656 1.996093-9.820312 1.996093-3.828125 0-7.65625-.867187-11.144531-2.605469l-96.960938-48.28125h-.003906l-99.238281-49.414062zm125.9375 302.980468 92.554687 46.085938-196.203125 97.695312c-6.980469 3.472656-15.3125 3.472656-22.289062 0l-196.203125-97.695312 92.554687-46.085938 90.277344 44.949219c1.917969.957031 3.882813 1.792969 5.882813 2.507813 1.808593.648437 3.644531 1.183593 5.5 1.636718.199218.050782.394531.109375.597656.15625 12.347656 2.867188 25.539062 1.433594 37.050781-4.300781zm-6.683594-30.1875s0 0-.003906.003906l-96.960938 48.277344c-.003906 0-.003906.003906-.003906.003906-6.976563 3.472657-15.304687 3.472657-22.285156-.003906l-96.960938-48.277344h-.003906l-99.238281-49.414062 92.554687-46.085938 90.277344 44.949219c.960937.476563 1.929687.925781 2.910156 1.34375 6.871094 2.925781 14.238281 4.386719 21.605469 4.386719s14.734375-1.460938 21.601562-4.386719c.980469-.417969 1.953126-.867187 2.910157-1.34375l90.277343-44.949219 92.558594 46.085938zm0 0"
     id="path94"
     style="fill:#bcbebf;fill-opacity:1" />
</svg>
