<?xml version="1.0" encoding="UTF-8" standalone="no"?>
<svg
   xmlns:dc="http://purl.org/dc/elements/1.1/"
   xmlns:cc="http://creativecommons.org/ns#"
   xmlns:rdf="http://www.w3.org/1999/02/22-rdf-syntax-ns#"
   xmlns:svg="http://www.w3.org/2000/svg"
   xmlns="http://www.w3.org/2000/svg"
   xmlns:sodipodi="http://sodipodi.sourceforge.net/DTD/sodipodi-0.dtd"
   xmlns:inkscape="http://www.inkscape.org/namespaces/inkscape"
   height="512pt"
   viewBox="0 0 512 512.00088"
   width="512pt"
   version="1.1"
   id="svg86"
   sodipodi:docname="zoom-in.svg"
   inkscape:version="0.92.4 (unknown)">
  <metadata
     id="metadata92">
    <rdf:RDF>
      <cc:Work
         rdf:about="">
        <dc:format>image/svg+xml</dc:format>
        <dc:type
           rdf:resource="http://purl.org/dc/dcmitype/StillImage" />
      </cc:Work>
    </rdf:RDF>
  </metadata>
  <defs
     id="defs90" />
  <sodipodi:namedview
     pagecolor="#ffffff"
     bordercolor="#666666"
     borderopacity="1"
     objecttolerance="10"
     gridtolerance="10"
     guidetolerance="10"
     inkscape:pageopacity="0"
     inkscape:pageshadow="2"
     inkscape:window-width="1855"
     inkscape:window-height="1176"
     id="namedview88"
     showgrid="false"
     inkscape:zoom="1.5161133"
     inkscape:cx="199.85314"
     inkscape:cy="341.33333"
     inkscape:window-x="65"
     inkscape:window-y="24"
     inkscape:window-maximized="1"
     inkscape:current-layer="svg86" />
  <path
     d="m454.964844 57.035156c-76.050782-76.046875-199.789063-76.046875-275.835938 0-61.246094 61.25-73.15625 153.421875-35.746094 226.710938l-125.832031 125.832031c-23.398437 23.398437-23.398437 61.472656 0 84.871094 11.699219 11.703125 27.066407 17.550781 42.433594 17.550781s30.738281-5.847656 42.4375-17.550781l67.191406-67.1875 58.640625-58.640625c27.789063 14.183594 58.285156 21.289062 88.792969 21.289062 49.945313 0 99.894531-19.011718 137.917969-57.039062 76.046875-76.046875 76.046875-199.789063 0-275.835938zm-411.496094 420.035156c-1.660156-1.097656-3.238281-2.375-4.703125-3.839843-11.699219-11.699219-11.699219-30.734375 0-42.433594l56.582031-56.582031 42.4375 42.433594-56.582031 56.582031c-10.238281 10.238281-26.089844 11.515625-37.734375 3.839843zm158.503906-124.605468-42.96875 42.96875-42.4375-42.4375 42.96875-42.96875.042969.042968c5.835937 7.972657 12.351563 15.601563 19.550781 22.800782 7.199219 7.199218 14.824219 13.714844 22.800782 19.550781zm231.773438-40.8125c-64.347656 64.347656-169.050782 64.347656-233.398438 0s-64.347656-169.050782 0-233.398438c32.171875-32.175781 74.4375-48.261718 116.699219-48.261718s84.523437 16.085937 116.699219 48.261718c64.347656 64.347656 64.347656 169.050782 0 233.398438zm0 0"
     id="path82"
     style="fill:#bcbebf;fill-opacity:1" />
</svg>
