<?xml version="1.0" encoding="UTF-8" standalone="no"?>
<svg
   xmlns:dc="http://purl.org/dc/elements/1.1/"
   xmlns:cc="http://creativecommons.org/ns#"
   xmlns:rdf="http://www.w3.org/1999/02/22-rdf-syntax-ns#"
   xmlns:svg="http://www.w3.org/2000/svg"
   xmlns="http://www.w3.org/2000/svg"
   xmlns:sodipodi="http://sodipodi.sourceforge.net/DTD/sodipodi-0.dtd"
   xmlns:inkscape="http://www.inkscape.org/namespaces/inkscape"
   height="512pt"
   viewBox="-51 0 512 512"
   width="512pt"
   version="1.1"
   id="svg106"
   sodipodi:docname="help.svg"
   inkscape:version="0.92.4 (unknown)">
  <metadata
     id="metadata112">
    <rdf:RDF>
      <cc:Work
         rdf:about="">
        <dc:format>image/svg+xml</dc:format>
        <dc:type
           rdf:resource="http://purl.org/dc/dcmitype/StillImage" />
      </cc:Work>
    </rdf:RDF>
  </metadata>
  <defs
     id="defs110" />
  <sodipodi:namedview
     pagecolor="#ffffff"
     bordercolor="#666666"
     borderopacity="1"
     objecttolerance="10"
     gridtolerance="10"
     guidetolerance="10"
     inkscape:pageopacity="0"
     inkscape:pageshadow="2"
     inkscape:window-width="1855"
     inkscape:window-height="1176"
     id="namedview108"
     showgrid="false"
     inkscape:zoom="0.9777961"
     inkscape:cx="90.978813"
     inkscape:cy="315.12094"
     inkscape:window-x="65"
     inkscape:window-y="24"
     inkscape:window-maximized="1"
     inkscape:current-layer="svg106" />
  <path
     d="m410 205c0-113.039062-91.964844-205-205-205s-205 91.960938-205 205c0 72.488281 38.09375 139.140625 100 176.089844v25.910156c0 19.96875 13.078125 36.929688 31.113281 42.796875 6.09375 35.277344 36.894531 62.203125 73.886719 62.203125s67.792969-26.925781 73.886719-62.203125c18.035156-5.867187 31.113281-22.828125 31.113281-42.796875v-25.910156c61.90625-36.949219 100-103.601563 100-176.089844zm-205 277c-19.558594 0-36.238281-12.539062-42.429688-30h84.859376c-6.191407 17.460938-22.871094 30-42.429688 30zm75-75c0 8.269531-6.730469 15-15 15h-120c-8.269531 0-15-6.730469-15-15v-19.632812h150zm11.132812-49.632812h-71.132812v-78.789063l45.605469-45.605469c5.859375-5.859375 5.859375-15.355468 0-21.210937-5.855469-5.859375-15.355469-5.859375-21.210938 0l-39.394531 39.390625-39.394531-39.390625c-5.855469-5.859375-15.355469-5.859375-21.210938 0-5.859375 5.855469-5.859375 15.351562 0 21.210937l45.605469 45.605469v78.789063h-71.132812c-54.910157-31.09375-88.867188-89.136719-88.867188-152.367188 0-96.496094 78.503906-175 175-175s175 78.503906 175 175c0 63.230469-33.957031 121.273438-88.867188 152.367188zm0 0"
     id="path104"
     style="fill:#f3bd04;fill-opacity:1" />
</svg>
